<?xml version="1.0" encoding="utf-8"?>
<!-- Generator: Adobe Illustrator 16.0.0, SVG Export Plug-In . SVG Version: 6.00 Build 0)  -->
<!DOCTYPE svg PUBLIC "-//W3C//DTD SVG 1.1//EN" "http://www.w3.org/Graphics/SVG/1.1/DTD/svg11.dtd">
<svg version="1.1" id="Layer_1" xmlns="http://www.w3.org/2000/svg" xmlns:xlink="http://www.w3.org/1999/xlink" x="0px" y="0px"
	 width="207.739px" height="82.034px" viewBox="0 0 207.739 82.034" enable-background="new 0 0 207.739 82.034"
	 xml:space="preserve">
<g>
	<g>
		<path fill="#ED1F24" d="M8.617,25.063c-1.675,2.059-2.503,3.099-4.146,5.199c-0.645,0.791-1.106,1.247-1.384,1.363
			c-0.51,0.212-0.953,0.19-1.332-0.065c-0.377-0.256-0.715-0.759-1.012-1.508c-0.34-0.856-0.569-1.914-0.684-3.173
			c-0.116-1.259-0.065-2.241,0.157-2.943c0.23-0.728,0.987-1.906,2.277-3.51c1.291-1.603,2.929-3.329,4.928-5.158
			s4.183-3.506,6.548-5.024c2.366-1.519,4.644-2.615,6.82-3.311c1.52-0.486,2.739-0.588,3.649-0.316
			c0.91,0.272,1.755,1.479,2.529,3.61c0.42,1.155,0.5,2.557,0.252,4.214s-0.662,3.329-1.234,5.018
			c-0.573,1.689-3.232,9.149-3.232,9.149c0.078,0.065,2.447-1.354,3.123-1.676c0.676-0.321,3.051-0.937,3.777-1.837
			c1.544-1.914,1.88-7.455,2.561-9.917s1.283-4.5,1.796-6.125c0.513-1.624,0.85-2.562,0.959-2.806
			c0.215-0.482,0.442-0.743,0.711-0.713s0.515,0.36,0.738,0.993c0.253,0.721,0.385,1.332,0.399,1.831
			c0.014,0.5-0.056,1.019-0.21,1.559c-0.153,0.539-0.232,0.831-0.238,0.869c-0.131,0.851-0.482,2.071-0.892,3.55
			c-0.409,1.478-0.801,2.946-1.178,4.396s-1.229,5.121-1.213,5.135c0.204,0.189,3.865-0.917,5.857-1.071
			c-0.938,3.142-1.399,4.723-2.303,7.902c-1.292,0.251-4.41,0.706-5,1.463c-0.355,0.456-0.211,2.202-0.271,2.899
			s-0.087,1.352-0.086,1.957s0.082,1.137,0.244,1.593c0.101,0.282,0.311,0.627,0.631,1.033c0.32,0.407,0.493,0.646,0.518,0.715
			c0.125,0.352,0.013,0.813-0.328,1.391c-0.341,0.579-0.779,1.142-1.314,1.69s-0.979,0.894-1.335,1.034
			c-0.598,0.236-1.073-0.139-1.427-1.125c-0.733-2.045-0.153-9.664-0.153-9.664c-0.265-0.196-7.137,2.851-8.475,4.686
			c-0.674,0.925-0.824,3.45-1.134,5.02c-0.311,1.57-0.548,2.891-0.717,3.955c-0.169,1.064-0.316,1.791-0.44,2.177
			s-0.322,0.639-0.593,0.757c-0.462,0.202-0.941,0.125-1.421-0.158c-0.201-0.118-0.371-0.254-0.478-0.415
			c-0.107-0.161-0.199-0.352-0.281-0.566c-0.081-0.215-0.153-0.403-0.213-0.563c-0.081-0.215-0.097-0.573-0.044-1.076
			c0.053-0.502,0.238-1.539,0.564-3.102s0.699-3.512,0.699-3.512c-0.036-0.025-0.937,0.482-1.6,0.759
			c-0.841,0.353-1.586,0.471-2.242,0.353c-0.655-0.119-1.079-0.43-1.272-0.935c-0.221-0.577-0.32-1.251-0.297-2.025
			c0.023-0.774,0.171-1.474,0.442-2.098c0.271-0.624,0.626-1.026,1.068-1.206c0.294-0.12,0.682-0.164,1.166-0.132
			c2.269-1.718,3.413-2.564,5.713-4.231c2.008-5.55,3.508-9.796,4.412-12.835c0.904-3.038,1.242-4.89,0.987-5.584
			c-0.143-0.391-0.364-0.683-0.665-0.875c-0.3-0.19-0.662-0.297-1.084-0.319c-0.422-0.021-0.872,0.045-1.352,0.204
			c-0.564,0.187-1.4,0.645-2.499,1.382c-1.1,0.737-2.374,1.713-3.813,2.938c-1.439,1.225-3.193,2.867-5.245,4.906
			c-1.519,1.509-2.247,2.387-2.162,2.604c0.099,0.254,0.288,0.369,0.566,0.344c0.279-0.024,0.619-0.093,1.026-0.208
			c0.406-0.114,0.628-0.126,0.664-0.036c0.028,0.073-0.031,0.209-0.173,0.409C9.085,24.499,8.88,24.754,8.617,25.063z"/>
		<path fill="#ED1F24" d="M40.189,24.429c1.693-3.191,3.661-5.734,5.723-7.592s3.78-2.95,5.126-3.312
			c0.363-0.097,0.75-0.037,1.158,0.181s0.767,0.499,1.076,0.844c0.31,0.346,0.493,0.612,0.554,0.8
			c0.1,0.308,0.054,0.566-0.139,0.776c-0.194,0.21-1.077,0.75-1.092,0.869c-0.01,0.081,0.478,0.549,0.806,0.924
			c0.328,0.376,0.588,0.683,0.775,0.918c0.188,0.236,0.314,0.458,0.38,0.663c0.133,0.41-0.036,1.287-0.5,2.637
			c-0.464,1.351-0.773,2.342-0.932,2.967c-0.158,0.625-0.112,1.322,0.136,2.089c0.409,1.262,1.182,1.72,2.327,1.383
			c1.177-0.347,2.664-2.001,4.499-4.912c0.195,0.619,0.294,0.928,0.489,1.547c-2.798,5.935-5.033,9.27-6.846,9.839
			c-0.649,0.204-1.181,0.135-1.597-0.213c-0.415-0.347-0.762-0.948-1.04-1.802c-0.439-1.35-0.483-6.315-0.483-6.315
			c-0.065-0.015-2.708,6.074-3.5,7.634c-0.791,1.562-1.56,2.475-2.32,2.731c-0.364,0.123-0.925-0.05-1.69-0.519
			c-0.765-0.47-1.536-1.156-2.313-2.061c-0.777-0.903-1.361-1.92-1.747-3.048c-0.278-0.816-0.437-1.524-0.474-2.122
			c-0.038-0.597,0.064-1.254,0.304-1.969C39.109,26.654,39.541,25.65,40.189,24.429z M51.451,17.955
			c-0.155-0.102-6.333,5.985-7.711,8s-1.796,3.803-1.284,5.324c0.187,0.554,0.43,0.976,0.731,1.27s0.613,0.389,0.929,0.285
			c0.183-0.06,0.494-0.289,0.853-0.681c1.399-1.53,2.541-3.531,3.443-5.686C49.315,24.312,51.451,17.955,51.451,17.955z"/>
		<path fill="#ED1F24" d="M60.208,25.893c-0.224-0.71-0.336-1.064-0.561-1.775c1.565-3.229,2.883-6.178,3.928-8.873
			s1.885-4.816,2.501-6.381c0.618-1.565,1.241-2.706,1.863-3.424c0.623-0.717,1.533-1.201,2.733-1.449
			c0.6-0.124,0.966,0.033,1.1,0.469c0.107,0.353,0.021,0.92-0.253,1.708c-0.274,0.788-0.675,1.63-1.209,2.508
			c-0.701,1.153-1.323,2.553-1.834,4.19c-0.512,1.638-1.532,6.193-1.532,6.193c0.027,0.012,1.526-2.03,2.452-3.281
			c0.925-1.25,1.695-2.23,2.305-2.947c0.608-0.716,1.245-1.314,1.909-1.795c0.664-0.48,1.381-0.803,2.15-0.965
			c0.488-0.103,0.834-0.085,1.033,0.05c0.197,0.135,0.37,0.443,0.512,0.923c0.374,1.261,0.413,2.56,0.125,3.899
			c-0.287,1.34-0.838,2.792-1.643,4.359c-0.804,1.567-3.131,5.235-3.108,5.282c0.042,0.088,1.306,0.021,1.938-0.133
			c1.98-0.485,4.2-2.59,6.726-6.232c0.206,0.711,0.31,1.066,0.515,1.776c-0.987,1.405-1.955,2.747-2.907,4.027
			s-1.882,2.356-2.794,3.222c-0.912,0.865-1.824,1.417-2.739,1.652c-0.338,0.087-0.71,0.145-1.113,0.169
			c-0.402,0.024-0.781,0.024-1.135,0.001c-0.354-0.023-0.815-0.067-1.383-0.132c-0.567-0.065-1.085-0.165-1.294-0.114
			c-0.407,0.098-0.784,0.428-0.852,0.447c-0.591,0.16-2.128-0.238-2.291-0.135c-0.28,0.177-0.409,2.785-0.546,4.676
			c-0.137,1.891-0.275,3.408-0.414,4.547c-0.14,1.14-0.41,2.364-0.899,3.436c-0.243,0.532-0.507,0.847-0.671,0.898
			c-0.707,0.222-1.258-0.302-1.656-1.58c-0.345-1.109-0.486-2.337-0.423-3.674s0.249-2.642,0.556-3.909
			c0.307-1.268,0.675-2.564,1.106-3.886c0.431-1.322,0.73-2.296,0.88-2.921c1.27-5.281,2.693-13.309,2.693-13.309
			C65.922,13.395,61.558,23.272,60.208,25.893z M70.939,24.378c0.873-0.389,1.99-3.934,2.461-5.345
			c0.471-1.411,0.613-2.438,0.418-3.088c-0.184-0.616-0.598-0.851-1.238-0.705c-0.867,0.198-1.876,1.165-3.014,2.92
			c-1.138,1.756-3.079,6.796-3.079,6.796c0.091,0.087,2.048-0.726,2.486-0.793C69.414,24.097,70.649,24.507,70.939,24.378z"/>
		<path fill="#ED1F24" d="M81.504,20.572c-0.2-0.69-0.3-1.036-0.5-1.727c1.691-3.03,3.121-5.803,4.27-8.342
			c1.148-2.539,2.067-4.535,2.744-6.009c0.676-1.474,1.343-2.541,1.993-3.201c0.651-0.661,1.586-1.084,2.802-1.269
			c0.606-0.092,0.971,0.077,1.088,0.5c0.095,0.342-0.01,0.882-0.314,1.625C93.281,2.893,92.849,3.683,92.28,4.5
			c-0.748,1.075-1.422,2.389-1.994,3.936c-0.573,1.547-1.763,5.869-1.763,5.869c0.027,0.014,1.609-1.88,2.584-3.04
			c0.975-1.158,1.785-2.062,2.423-2.723c0.637-0.66,1.299-1.206,1.984-1.638c0.684-0.431,1.418-0.708,2.198-0.829
			C98.209,6,98.554,6.032,98.749,6.169c0.195,0.139,0.356,0.441,0.483,0.909c0.332,1.224,0.326,2.469-0.011,3.741
			c-0.336,1.272-0.94,2.636-1.806,4.103c-0.865,1.466-3.325,4.901-3.314,4.927c0.037,0.087,1.315,0.078,1.956-0.043
			c2.01-0.379,4.319-2.3,6.988-5.678c0.183,0.69,0.274,1.035,0.456,1.724c-1.042,1.302-2.064,2.545-3.066,3.73
			c-1.003,1.185-1.978,2.174-2.928,2.964c-0.949,0.789-1.886,1.28-2.814,1.467c-0.345,0.069-0.719,0.107-1.125,0.113
			c-0.407,0.006-0.787-0.008-1.142-0.046c-0.356-0.038-0.819-0.1-1.389-0.187c-0.568-0.086-1.083-0.206-1.3-0.165
			c-0.415,0.078-0.803,0.378-0.872,0.393c-0.601,0.128-2.128-0.327-2.302-0.227c-0.281,0.163-0.511,2.654-0.718,4.463
			c-0.206,1.807-0.397,3.257-0.579,4.343c-0.181,1.087-0.498,2.252-1.027,3.257c-0.264,0.5-0.542,0.791-0.708,0.834
			c-0.719,0.185-1.257-0.343-1.612-1.584c-0.308-1.078-0.405-2.261-0.293-3.541s0.343-2.523,0.698-3.726
			c0.355-1.204,0.772-2.432,1.254-3.681c0.481-1.25,0.814-2.171,0.988-2.765c1.467-5.01,3.187-12.646,3.187-12.646
			C87.696,8.829,82.956,18.116,81.504,20.572z M92.358,19.575c0.885-0.347,2.142-3.684,2.666-5.015
			c0.523-1.331,0.702-2.308,0.529-2.938c-0.165-0.598-0.572-0.843-1.221-0.731c-0.879,0.151-1.928,1.033-3.136,2.667
			c-1.207,1.634-3.34,6.384-3.34,6.384c0.087,0.093,2.086-0.608,2.53-0.654S92.049,19.696,92.358,19.575z"/>
		<path fill="#ED1F24" d="M115.291,13.462c-1.525,1.671-2.286,2.518-3.79,4.225c-1.775,2.081-3.023,3.205-3.77,3.329
			c-0.677,0.113-1.568-0.474-2.686-1.77c-1.119-1.296-1.825-2.482-2.107-3.551c-0.24-0.91-0.292-1.708-0.152-2.388
			c0.14-0.68,0.447-1.607,0.946-2.706c0.686-1.51,1.449-2.82,2.195-3.898s1.437-1.926,2.069-2.542
			c0.631-0.616,1.099-0.939,1.403-0.977c0.481-0.059,1.009,0.105,1.579,0.495s0.916,0.821,1.037,1.296
			c0.077,0.301-0.045,0.814-0.364,1.54s-0.874,1.667-1.663,2.832s-1.938,2.593-3.426,4.306c-0.064,0.555-0.096,0.831-0.158,1.387
			c-0.074,0.275-0.088,0.51-0.038,0.7c0.11,0.428,0.403,0.606,0.876,0.533c0.489-0.077,1.491-0.822,3.022-2.208
			c1.531-1.385,3.138-3.161,4.8-5.311c0.648-0.838,1.179-1.578,1.589-2.206c0.41-0.629,0.778-1.213,1.101-1.757
			c0.323-0.542,0.601-0.954,0.833-1.236c0.232-0.281,0.472-0.439,0.694-0.482c0.43-0.082,0.828,0.038,1.172,0.389
			c0.344,0.351,0.604,0.894,0.784,1.627c0.103,0.422,0.019,0.97-0.253,1.647c-0.273,0.677-0.812,1.838-1.607,3.497
			c-0.795,1.659-1.566,3.382-2.312,5.168c-0.748,1.787-2.133,6.018-2.133,6.018c0,0,0.457-0.606,1.258-1.644
			c0.801-1.037,1.652-2.116,2.555-3.231c0.903-1.115,1.658-2.006,2.258-2.679c0.598-0.672,1.361-1.462,2.29-2.361
			c0.149,0.624,0.224,0.935,0.374,1.557c-1.846,2.516-3.473,4.929-4.891,7.217c-1.416,2.288-2.482,4.135-3.21,5.514
			c-0.728,1.379-1.148,2.19-1.271,2.422c-0.33,0.624-0.619,1.208-0.87,1.747s-0.468,0.96-0.651,1.261
			c-0.184,0.302-0.354,0.467-0.507,0.495c-0.358,0.065-0.762-0.2-1.206-0.798s-0.729-1.147-0.855-1.649
			c-0.113-0.455-0.109-0.879-0.02-1.251C110.834,25.339,112.442,20.339,115.291,13.462z"/>
		<path fill="#ED1F24" d="M41.428,57.939c-1.655,1.985-2.475,2.988-4.1,5.015c-0.638,0.764-1.085,1.205-1.352,1.319
			c-0.484,0.208-0.9,0.19-1.243-0.05c-0.342-0.239-0.638-0.717-0.884-1.43c-0.282-0.816-0.452-1.826-0.507-3.028
			s0.035-2.142,0.273-2.815c0.247-0.699,1.001-1.833,2.278-3.379c1.275-1.545,2.882-3.21,4.835-4.975
			c1.952-1.766,4.071-3.385,6.356-4.854c2.285-1.469,4.472-2.534,6.547-3.215c1.45-0.476,2.599-0.583,3.441-0.332
			c0.843,0.251,1.583,1.393,2.216,3.413c0.343,1.095,0.357,2.429,0.051,4.008s-0.771,3.175-1.383,4.79s-3.434,8.752-3.434,8.752
			c0.067,0.059,2.356-1.32,3.003-1.634c0.648-0.314,2.885-0.903,3.628-1.794c1.576-1.887,2.096-7.116,2.846-9.465
			c0.751-2.348,1.409-4.291,1.965-5.839c0.556-1.548,0.912-2.441,1.026-2.676c0.224-0.458,0.451-0.708,0.703-0.684
			c0.251,0.025,0.467,0.338,0.648,0.937c0.207,0.683,0.305,1.262,0.295,1.734s-0.1,0.97-0.269,1.483s-0.255,0.79-0.263,0.827
			c-0.162,0.812-0.547,1.973-0.999,3.382c-0.452,1.411-0.886,2.808-1.305,4.19c-0.418,1.385-1.37,4.898-1.37,4.898
			c0.174,0.168,3.672-0.919,5.553-1.09c-1.024,2.997-1.527,4.506-2.52,7.541c-1.226,0.256-4.147,0.699-4.76,1.459
			c-0.365,0.453-0.295,2.1-0.382,2.764c-0.086,0.664-0.143,1.285-0.167,1.863c-0.025,0.577,0.027,1.084,0.16,1.516
			c0.081,0.268,0.262,0.591,0.543,0.973c0.282,0.383,0.434,0.607,0.454,0.673c0.101,0.332-0.022,0.775-0.367,1.331
			c-0.346,0.557-0.781,1.098-1.306,1.627c-0.526,0.531-0.958,0.865-1.299,1.006c-0.571,0.232-1.002-0.115-1.291-1.051
			c-0.598-1.938,0.282-9.204,0.282-9.204c-0.227-0.175-6.781,2.767-8.149,4.58c-0.688,0.913-0.921,3.302-1.279,4.806
			s-0.636,2.768-0.84,3.788c-0.204,1.019-0.372,1.715-0.505,2.085s-0.328,0.614-0.586,0.731c-0.44,0.199-0.887,0.135-1.323-0.129
			c-0.182-0.11-0.333-0.237-0.427-0.391s-0.174-0.334-0.24-0.538c-0.066-0.203-0.125-0.381-0.174-0.534
			c-0.067-0.204-0.066-0.546,0.004-1.027c0.07-0.479,0.287-1.474,0.659-2.97s0.805-3.363,0.805-3.363
			c-0.031-0.022-0.895,0.471-1.527,0.745c-0.802,0.349-1.505,0.472-2.112,0.367c-0.607-0.104-0.993-0.396-1.152-0.876
			c-0.182-0.548-0.247-1.193-0.192-1.932c0.055-0.74,0.222-1.41,0.502-2.01s0.632-0.986,1.052-1.164
			c0.28-0.119,0.646-0.167,1.099-0.143c2.197-1.67,3.304-2.49,5.532-4.108c2.122-5.319,3.716-9.384,4.698-12.288
			c0.981-2.904,1.38-4.668,1.171-5.327c-0.118-0.371-0.313-0.646-0.587-0.826c-0.274-0.179-0.607-0.278-1.002-0.295
			c-0.394-0.017-0.82,0.052-1.277,0.208c-0.539,0.184-1.343,0.628-2.407,1.341s-2.302,1.655-3.705,2.837s-3.12,2.767-5.128,4.734
			c-1.487,1.457-2.205,2.303-2.136,2.51c0.082,0.241,0.253,0.348,0.515,0.322c0.261-0.026,0.584-0.096,0.97-0.209
			c0.385-0.113,0.591-0.129,0.621-0.043c0.023,0.069-0.036,0.2-0.178,0.393C41.891,57.395,41.688,57.642,41.428,57.939z"/>
		<path fill="#ED1F24" d="M85.869,57.255c0.176,0.646,0.261,0.969,0.436,1.613c-0.805,1.282-1.48,2.191-2.034,2.713
			c-0.555,0.521-2.126,0.809-2.659,1.264c-1.485,1.268-2.855,5.018-4.421,5.56c-0.886,0.307-1.777,0.29-2.676-0.057
			c-0.899-0.346-1.716-0.964-2.455-1.857c-0.739-0.892-1.297-1.987-1.676-3.285c-0.307-1.05-0.312-2.335-0.006-3.847
			c0.306-1.513,0.839-3.002,1.608-4.463c0.769-1.459,1.683-2.72,2.742-3.784c1.059-1.063,2.132-1.753,3.213-2.07
			c0.77-0.226,1.411-0.283,1.92-0.176c0.51,0.108,0.824,0.372,0.943,0.794c0.091,0.324-0.25,1.283-0.25,1.283
			c0.049,0.072,1.144,0.041,1.456,0.273c0.312,0.234,0.579,0.746,0.799,1.537c0.215,0.775,0.303,1.807,0.264,3.093
			s-0.231,2.543-0.574,3.771c0.222,0.12,0.333,0.18,0.555,0.3c0.145-0.045,0.217-0.067,0.362-0.112
			c0.275-0.086,0.525-0.236,0.754-0.455c0.229-0.219,0.427-0.436,0.595-0.652S85.301,57.997,85.869,57.255z M79.078,52.386
			c-0.042-0.023-2.064,2.312-2.83,3.273s-1.381,1.889-1.844,2.781c-0.464,0.893-0.744,1.76-0.733,2.484
			c0.029,1.869,0.21,3.02,0.253,3.166c0.311,1.074,1.193,1.361,2.657,0.865c0.684-0.231,2.934-2.131,2.939-2.943
			c0.002-0.339-0.827-1.358-1.023-2.056c-0.288-1.022-0.375-2.132-0.256-3.328C78.36,55.434,79.078,52.386,79.078,52.386z"/>
		<path fill="#ED1F24" d="M97.44,53.778c0.181,0.699,0.272,1.05,0.452,1.749c-2.291,5.272-4.442,8.283-6.542,8.923
			c-1.138,0.347-2.19,0.01-3.171-1.027c-0.981-1.034-1.747-2.562-2.298-4.582c-0.446-1.636-0.592-3.703-0.429-6.188
			c0.163-2.484,0.585-5.074,1.279-7.755c0.693-2.679,1.531-5.062,2.51-7.142c0.98-2.08,2.022-3.599,3.074-4.571
			c0.429-0.396,0.789-0.635,1.076-0.698c0.356-0.078,0.634,0.019,0.832,0.289c0.198,0.271,0.394,0.765,0.585,1.483
			c0.593,2.221,0.356,5.149-0.67,8.834c-1.026,3.686-4.378,8.522-5.137,11.954c-0.136,0.615,0.151,1.54,0.271,1.987
			c0.274,1.021,0.718,1.784,1.332,2.29c0.615,0.507,1.316,0.642,2.108,0.413c0.405-0.117,0.801-0.396,1.19-0.84
			c0.389-0.441,0.784-0.965,1.185-1.568S96.269,55.536,97.44,53.778z M88.958,51.472c0.051,0.013,1.208-2.201,1.729-3.452
			c0.521-1.25,0.981-2.556,1.379-3.917c0.397-1.361,0.677-2.562,0.834-3.603c0.157-1.04,0.173-1.8,0.044-2.279
			c-0.098-0.367-0.283-0.522-0.551-0.459c-0.102,0.023-0.297,0.159-0.508,0.401c-0.817,0.939-1.531,2.89-2.161,5.544
			C89.096,46.362,88.958,51.472,88.958,51.472z"/>
		<path fill="#ED1F24" d="M109.08,51.176c0.165,0.679,0.249,1.017,0.413,1.694c-1.129,2.307-2.254,4.133-3.381,5.467
			s-2.164,2.137-3.122,2.395c-1.33,0.357-2.484-0.04-3.475-1.209c-0.992-1.17-1.697-2.559-2.113-4.166
			c-0.159-0.615-0.245-1.223-0.259-1.816s0.021-1.096,0.108-1.506c0.086-0.41,0.27-1.08,0.57-1.966
			c1.376-4.051,3.163-6.321,5.134-6.765c1.019-0.229,1.622,0.027,1.807,0.763c0.126,0.501-0.007,1.355-0.396,2.57
			c-0.39,1.215-0.79,2.114-1.181,2.689c-1.111,1.638-1.806,2.812-2.11,3.438c-0.305,0.627-0.372,1.272-0.205,1.931
			c0.144,0.563,0.484,0.976,1.021,1.237s1.153,0.301,1.857,0.121c0.767-0.195,1.546-0.68,2.342-1.443
			C106.885,53.847,107.878,52.696,109.08,51.176z M104.787,41.11c-0.419,0.09-0.856,0.029-1.309-0.187
			c-0.453-0.216-0.74-0.552-0.856-1.008c-0.177-0.692-0.02-1.542,0.472-2.541c0.491-0.999,1.118-1.576,1.881-1.73
			c0.509-0.103,0.968-0.041,1.381,0.182c0.411,0.223,0.687,0.608,0.824,1.155c0.169,0.671,0.007,1.485-0.479,2.44
			C106.213,40.377,105.575,40.94,104.787,41.11z"/>
		<path fill="#ED1F24" d="M120.241,48.817c-0.076-0.021-2.12,3.387-3.019,4.704c-0.899,1.317-1.642,2.327-2.231,3.02
			c-0.59,0.691-1.014,1.071-1.275,1.134c-0.426,0.102-0.98-0.105-1.666-0.623c-0.687-0.518-1.34-1.232-1.96-2.145
			c-0.619-0.912-1.058-1.887-1.312-2.925c-0.366-1.501,0.035-3.2,1.228-5.068c1.192-1.867,2.677-3.505,4.454-4.904
			c1.777-1.398,3.184-2.174,4.197-2.358c0.828-0.15,2.702,1.005,2.766,0.984c0.438-0.144,1.473-5.071,2.221-7.164
			c0.747-2.091,1.425-3.655,2.021-4.698c0.596-1.043,1.07-1.584,1.416-1.63c0.381-0.05,0.77,0.066,1.164,0.351
			c0.394,0.284,0.637,0.633,0.729,1.042c0.178,0.789-0.175,2.223-1.044,4.327c-0.87,2.104-1.725,4.171-2.566,6.196
			s-1.504,4.008-1.991,5.937c-0.487,1.93-0.558,3.649-0.219,5.146c0.309,1.359,0.942,1.938,1.906,1.749
			c0.58-0.114,1.245-0.554,1.997-1.312c0.751-0.76,1.79-1.987,3.131-3.663c0.144,0.655,0.215,0.982,0.357,1.637
			c-2.708,4.802-4.983,7.471-6.91,7.878c-0.774,0.164-1.391,0.013-1.852-0.459c-0.46-0.472-0.813-1.243-1.059-2.319
			C120.392,52.2,120.241,48.817,120.241,48.817z M120.811,42.891c-0.201-0.119-2.977,1.804-4.739,3.23s-2.794,2.417-3.12,2.872
			c-0.275,0.385-0.477,1.033-0.555,1.942s-0.066,1.581,0.037,2.012c0.063,0.262,0.197,0.458,0.402,0.589s0.43,0.168,0.678,0.111
			c0.23-0.053,0.473-0.204,0.727-0.454c0.254-0.251,0.643-0.718,1.17-1.396c0.526-0.679,0.879-1.112,1.037-1.308
			c0.229-0.282,0.739-0.916,1.537-1.871s1.373-1.686,1.727-2.201c0.354-0.515,0.627-1.065,0.824-1.651
			S120.827,42.899,120.811,42.891z"/>
		<path fill="#ED1F24" d="M132.27,42.417c2.07-2.462,4.305-4.345,6.541-5.653c2.234-1.308,4.037-2.017,5.379-2.166
			c0.359-0.04,0.723,0.051,1.086,0.274c0.361,0.223,0.666,0.493,0.914,0.81s0.387,0.556,0.42,0.717
			c0.053,0.263-0.025,0.468-0.24,0.62s-1.15,0.519-1.17,0.594c-0.014,0.058,0.383,0.503,0.645,0.847
			c0.264,0.344,0.469,0.623,0.617,0.837c0.146,0.214,0.24,0.409,0.275,0.583c0.07,0.35-0.215,1.051-0.848,2.109
			c-0.633,1.059-1.068,1.839-1.307,2.336c-0.238,0.494-0.287,1.074-0.154,1.729c0.217,1.079,0.896,1.534,2.041,1.378
			c1.182-0.162,2.838-1.362,5.004-3.545c0.102,0.527,0.152,0.791,0.254,1.317c-3.51,4.555-6.121,7.064-7.941,7.348
			c-0.652,0.102-1.154-0.011-1.504-0.338s-0.6-0.855-0.748-1.587c-0.234-1.154,0.414-5.241,0.414-5.241
			c-0.066-0.029-3.447,4.718-4.422,5.923c-0.977,1.205-1.844,1.881-2.607,2.017c-0.367,0.065-0.881-0.133-1.551-0.597
			c-0.669-0.465-1.312-1.107-1.931-1.932c-0.619-0.822-1.038-1.722-1.25-2.692c-0.153-0.702-0.209-1.304-0.16-1.802
			c0.047-0.496,0.235-1.03,0.565-1.597C130.922,44.14,131.481,43.354,132.27,42.417z M143.969,38.278
			c-0.121-0.122-6.904,4.246-8.508,5.764c-1.602,1.52-2.256,2.951-1.977,4.258c0.102,0.476,0.277,0.851,0.527,1.123
			s0.531,0.381,0.85,0.328c0.184-0.031,0.512-0.186,0.914-0.475c1.551-1.117,2.93-2.649,4.096-4.328
			C141.04,43.271,143.969,38.278,143.969,38.278z"/>
		<path fill="#ED1F24" d="M163.165,43.5c-1.594,1.438-2.385,2.165-3.959,3.642c-1.865,1.801-3.148,2.768-3.873,2.856
			c-0.656,0.08-1.465-0.47-2.436-1.662c-0.969-1.192-1.551-2.274-1.736-3.239c-0.16-0.821-0.146-1.536,0.039-2.14
			s0.553-1.422,1.117-2.39c0.777-1.33,1.607-2.476,2.406-3.415c0.799-0.94,1.525-1.671,2.178-2.199
			c0.652-0.528,1.127-0.801,1.422-0.824c0.467-0.036,0.959,0.132,1.475,0.499c0.514,0.367,0.812,0.765,0.893,1.192
			c0.051,0.271-0.105,0.725-0.467,1.36c-0.363,0.636-0.973,1.458-1.82,2.471c-0.848,1.012-2.055,2.25-3.615,3.734
			c-0.104,0.493-0.156,0.74-0.26,1.234c-0.094,0.243-0.121,0.451-0.088,0.623c0.072,0.387,0.336,0.553,0.795,0.502
			c0.473-0.053,1.494-0.689,3.068-1.876s3.254-2.716,5.014-4.575c0.688-0.725,1.252-1.362,1.693-1.907
			c0.443-0.546,0.84-1.055,1.193-1.527c0.352-0.471,0.654-0.829,0.898-1.07c0.244-0.242,0.482-0.374,0.701-0.403
			c0.418-0.058,0.793,0.065,1.094,0.389c0.303,0.325,0.51,0.816,0.627,1.476c0.066,0.379-0.059,0.862-0.375,1.455
			c-0.314,0.593-0.92,1.607-1.811,3.055c-0.893,1.449-1.766,2.958-2.621,4.522c-0.855,1.565-2.516,5.291-2.516,5.291
			c0.002,0.001,0.488-0.526,1.336-1.425s1.75-1.831,2.703-2.795c0.953-0.963,1.746-1.731,2.371-2.31
			c0.627-0.577,1.42-1.253,2.381-2.02c0.096,0.56,0.143,0.841,0.238,1.399c-1.967,2.171-3.715,4.262-5.252,6.253
			s-2.703,3.604-3.51,4.812c-0.805,1.207-1.275,1.92-1.408,2.121c-0.361,0.545-0.686,1.055-0.969,1.529s-0.523,0.845-0.725,1.109
			c-0.199,0.264-0.373,0.406-0.523,0.427c-0.35,0.048-0.711-0.2-1.09-0.746c-0.381-0.546-0.613-1.044-0.693-1.495
			c-0.074-0.408-0.035-0.788,0.08-1.117C157.969,53.959,159.897,49.532,163.165,43.5z"/>
		<path fill="#ED1F24" d="M170.897,42.666c-0.033-0.2-0.055-0.3-0.088-0.501c3.773-4.078,7.314-7.074,7.861-8.354
			c0.445-1.044,0.885-2.583,2.354-2.606c0.367-0.006,0.775,0.072,1.221,0.231c0.088,0.156,0.133,0.232,0.221,0.388
			c-0.043,0.167-0.041,0.401,0.008,0.703c0.043,0.261,0.25,0.745,0.615,1.445c0.365,0.699,0.654,1.288,0.869,1.763
			s0.371,1.013,0.467,1.611c0.141,0.898,0.016,1.764-0.373,2.601c-0.389,0.836-1.016,1.649-1.877,2.442
			c-0.861,0.794-3.414,2.497-3.414,2.497c0.008,0.03,1.123,0.064,1.482,0.047c0.703-0.035,1.438-0.211,2.211-0.524
			c0.771-0.313,1.545-0.718,2.324-1.214c0.777-0.496,1.678-1.132,2.705-1.9c0.082,0.542,0.123,0.812,0.205,1.353
			c-1.949,1.74-3.715,3.1-5.307,4.058c-1.59,0.958-2.998,1.487-4.24,1.565c-1.602,0.101-3.182-0.34-4.713-1.347
			c-0.91-0.598-1.52-1.204-1.816-1.8C171.313,44.529,171.075,43.709,170.897,42.666z M179.993,38.998
			c-0.381-1.194-0.574-1.793-0.959-2.994c-0.918,1-5.93,5.891-5.93,5.891c0.033,0.098,1.805,0.322,2.232,0.604
			c0.428,0.281,1.396,1.564,1.879,1.662c0.521,0.105,1.918-1.014,2.438-1.706c0.521-0.692,0.691-1.61,0.506-2.761
			c-0.023-0.137-0.047-0.26-0.072-0.369S180.028,39.107,179.993,38.998z"/>
		<path fill="#ED1F24" d="M193.528,47.366c-0.514,0.012-1.047-0.152-1.594-0.491c-0.549-0.339-0.867-0.829-0.961-1.468
			c-0.123-0.839,0.018-1.793,0.422-2.858c0.406-1.064,0.91-1.598,1.516-1.603c0.381-0.003,0.781,0.096,1.199,0.299
			c0.42,0.204,0.795,0.492,1.125,0.861c0.33,0.369,0.525,0.778,0.588,1.228c0.104,0.728-0.098,1.576-0.598,2.549
			C194.725,46.856,194.163,47.351,193.528,47.366z M202.831,22.201c0.203-0.118,0.686-0.078,0.971-0.061
			c0.588,0.037,1.254,0.218,1.996,0.544c0.744,0.325,1.932,1.083,1.941,1.291c0.02,0.356-1.859,2.261-3.432,4.247
			c-1.574,1.986-2.738,3.497-3.502,4.503c-0.766,1.007-1.553,2.059-2.354,3.157c-0.799,1.097-1.807,2.532-1.793,2.563
			c0.021,0.051,0.521,0.209,0.559,0.461c0.023,0.159-0.143,0.43-0.494,0.813c-0.354,0.383-0.695,0.574-1.023,0.574
			c-0.383,0-0.904-0.264-1.57-0.795c-0.668-0.532-1.031-0.992-1.088-1.38c-0.027-0.188,0.059-0.51,0.262-0.965
			c0.201-0.455,0.576-1.139,1.121-2.051c0.545-0.911,1.162-1.916,1.85-3.009c0.686-1.094,1.527-2.438,2.527-4.007
			C200.747,25.03,202.2,22.564,202.831,22.201z"/>
	</g>
</g>
</svg>
